<svg xmlns="http://www.w3.org/2000/svg" viewBox="0 0 100 90"><defs><style>.cls-1,.cls-5{fill:#fff;}.cls-2{fill:#39393a;}.cls-3,.cls-6{fill:#0b6f7b;}.cls-3{opacity:0.5;}.cls-4{fill:#ee5b21;stroke:#ee5b21;opacity:0.15;}.cls-4,.cls-5{stroke-miterlimit:10;stroke-width:3px;}.cls-5{stroke:#0b6f7b;}.cls-7{opacity:0.7;}</style></defs><title>support-icon-ticket</title><g id="Get_Support_Icons" data-name="Get Support Icons"><rect class="cls-1" x="4.11" y="1.26" width="100" height="100"/><g id="Print_Reduction" data-name="Print Reduction"><path class="cls-2" d="M81.57,47.67c0-2.32,0-4.64,0-7V37.27a2.26,2.26,0,0,0-.1-.45,1.54,1.54,0,0,0-1.41-1H77c-4.42,0-46.87.44-52.32.4l-4.1-.06-2,0-1,0H17.1a1,1,0,0,0-.23,0,1.29,1.29,0,0,0-1.14,1.22l-.28,8.21c-.2,5.43-.29,10.87-.36,16.31,0,3.4.06,6.82.08,10.23v8.19a1.23,1.23,0,0,0,0,.2,1.94,1.94,0,0,0,.31.76,1.84,1.84,0,0,0,1.38.77h1.7v0c7.3-.14,14.6-.4,21.89-.41,5.68,0,11.36,0,17,.12l10.24,6,2.79,1.62.35.21.09.05.21.1a2.18,2.18,0,0,0,.45.16,2.43,2.43,0,0,0,2.91-1.86,2.61,2.61,0,0,0,0-.48V87l0-5s6.35.19,6.87,0a22.16,22.16,0,0,0,.42-3c.07-1.65.19-3.3.16-4.95Zm-9.95,39L58.25,79l-3.6,0c-4.85,0-36.38-.1-36.38-.1V74.12c0-2,0-4.26,0-6.46.08-7.3.19-15,.34-22.86l.12-5.62,1.08,0c.5,0,50.17.13,57.46-.27l1.33-.06,0,3.6c0,1.69,0,3.43.05,5.15l.54,21.1.07,2.07q0,.54,0,1.08l-.24,7V79c-.94,0-2,0-2.65,0l-4.8,0ZM79.3,37.4h0Z"/><path class="cls-1" d="M71.62,86.62,58.25,79l-3.6,0c-4.85,0-14,0-20.7,0-4.13,0-7.12,0-7.53,0S18.27,79,18.27,79V74.12c0-2,0-4.26,0-6.46.08-7.3.19-15,.34-22.86l.12-5.62,1.08,0c.5,0,50.17.13,57.46-.27l1.33-.06,0,3.6c0,1.69,0,3.43.05,5.15l.54,21.1.07,2.07q0,.54,0,1.08l-.24,7V79c-.94,0-2,0-2.65,0l-4.8,0Z"/><rect class="cls-3" x="26.01" y="46.94" width="45.54" height="8.64" rx="0.19" ry="0.19"/><rect class="cls-3" x="25.68" y="62.13" width="34.23" height="8.64" rx="0.19" ry="0.19"/></g><g id="Artwork_383" data-name="Artwork 383"><path class="cls-4" d="M66.45,69.19l8.09-4.62a1.27,1.27,0,0,0,.38-.35L96.21,32.39h0l1.65-2.48A3.46,3.46,0,0,0,96.63,25L94,23.44a4,4,0,0,0-5.32,1.15L87,27.06h0L65.75,58.89a1.11,1.11,0,0,0-.17.47l-.89,8.81A1.16,1.16,0,0,0,66.45,69.19Z"/><path class="cls-5" d="M65.3,69.85l9.24-5.28a1.27,1.27,0,0,0,.38-.35L96.21,32.39h0l1.65-2.48A3.46,3.46,0,0,0,96.63,25L94,23.44a4,4,0,0,0-5.32,1.15L87,27.06h0L65.75,58.89a1.11,1.11,0,0,0-.17.47l-1,10.06A.48.48,0,0,0,65.3,69.85Z"/><path class="cls-6" d="M81.34,44.35A1.21,1.21,0,0,0,83,44l8.7-13.19a.55.55,0,0,0-.18-.79l-1-.62a.65.65,0,0,0-.85.17L80.85,42.8a1,1,0,0,0,.36,1.47Z"/></g><g id="Artwork_467" data-name="Artwork 467"><path class="cls-6" d="M36.66,35A19.36,19.36,0,0,0,34,28.36c-.76-1.17-2.62-3.25-2.6-3.28s-1.74-2.35-7.26-4.47A16.48,16.48,0,0,0,18.31,20a21.3,21.3,0,0,0-8,2.23,19.73,19.73,0,0,0-6.51,5.23A17.84,17.84,0,0,0,.29,35.06a17.26,17.26,0,0,0-.15,5.32,18.72,18.72,0,0,0,1.33,5.14h0a10.84,10.84,0,0,0,.63,1.28A11.48,11.48,0,0,0,2.8,48c.27.4.53.79.81,1.18l.91,1.08.23.28.25.24.51.5.5.5c.17.16.37.3.55.45.36.29.72.6,1.1.88l1.17.79a18.74,18.74,0,0,0,7.11,2.65,18.4,18.4,0,0,0,7.6-.42,18.14,18.14,0,0,0,6.78-3.47h0s.27-.18.55-.48c.1-.09,1.83-1.82,2-2l.44-.48a3.8,3.8,0,0,0,.41-.49c.26-.35.51-.7.74-1.07A18.62,18.62,0,0,0,36.66,35Z"/><g class="cls-7"><path class="cls-1" d="M35.87,39.63l0,.64a16.62,16.62,0,0,1-1.19,5,7,7,0,0,1-.39.95c-.08.16-.17.32-.26.48s-.29.5-.45.75l-.51.7-.51.7-.57.64-1,1a6.66,6.66,0,0,0-.94.82,17.71,17.71,0,0,1-14.3,4.2c-.47-.1-1-.18-1.64-.33L13.12,55l-.5-.14-.49-.2-1-.42c-.33-.16-.66-.35-1-.52a17.24,17.24,0,0,1-1.89-1.19,9.49,9.49,0,0,1-.84-.67c-.27-.22-.53-.43-.77-.65L5.39,49.91c-.63-.8-1.08-1.33-1.14-1.44l-.62-.87-.3-.44c-.09-.15-.16-.31-.24-.47a12.52,12.52,0,0,1-.51-1.19c-.13-.41-.26-.82-.41-1.22a17.65,17.65,0,0,1-1-6.19,17.15,17.15,0,0,1,1-5.45,17.87,17.87,0,0,1,2.72-4.79l.85-1c.29-.33.63-.6.94-.91l.47-.44.52-.39c.35-.25.67-.54,1-.77a17.89,17.89,0,0,1,4.65-2.16c.44-.11.87-.27,1.31-.41L16,21.47a17.2,17.2,0,0,1,4.36-.19,23.55,23.55,0,0,1,2.35.29l1.15.3c.18.06.38.11.56.18l.55.23.61.28a4.75,4.75,0,0,1,.59.31l1.15.68a19.66,19.66,0,0,1,2.11,1.62c.69.56,1.27,1.23,1.9,1.85S32.5,28.37,33,29.11a15.78,15.78,0,0,1,2.51,6,19.81,19.81,0,0,1,.36,2.55l0,1.29v.32Z"/></g></g><path class="cls-6" d="M30.51,40.4l-.06-2,0-.8a2.94,2.94,0,0,1,0-.42c0-.46,0-.88,0-1.37a1.64,1.64,0,0,0-.79-1.26.75.75,0,0,0-.47-.12h0a4.1,4.1,0,0,0-.71-.14,7.89,7.89,0,0,0-1-.06l-4.51,0V29.15c0-.31,0-.58,0-.93a1.71,1.71,0,0,0-.43-1,1.69,1.69,0,0,0-1.38-.55H17a2,2,0,0,0-1,.16,1.67,1.67,0,0,0-1,1.54v2.8c0,.55.05,1.1,0,1.65s-.06.92-.09,1.39H8.93a1.73,1.73,0,0,0-1.19.61,1.82,1.82,0,0,0-.43,1.25v1.1l0,2.18,0,1.09a1.9,1.9,0,0,0,.45,1.32,1.87,1.87,0,0,0,1,.63,7.77,7.77,0,0,0,1,.05l1.85,0,3.05.07v.22c0,.73.06,1.47.08,2.2l0,1.74,0,.87a4.67,4.67,0,0,0,.08,1,1.83,1.83,0,0,0,1.81,1.36c.62,0,1.24,0,1.86,0l2.11.07.53,0a2,2,0,0,0,.66-.07,1.83,1.83,0,0,0,1.09-.86,2.34,2.34,0,0,0,.26-1.27v-1c0-.7,0-1.41-.06-2.11s-.06-1.54-.06-2.31h2.1l2,0,1,0a5.94,5.94,0,0,0,1.07-.08A1.66,1.66,0,0,0,30.51,40.4Z"/><path class="cls-1" d="M29,40.7a.32.32,0,0,1-.11.1l-1.22,0-2.51,0-2.53,0H21.6v6.48a3.23,3.23,0,0,0,0,.44,4.45,4.45,0,0,1,0,.55.31.31,0,0,1-.15.15H21.3l-.55,0-1.09,0-2.19,0h-.83a.26.26,0,0,1-.11-.08.31.31,0,0,1,0-.12l0-.28,0-.76,0-.35c-.11-1.51-.16-3.11-.17-4.87V41H14.71c-1,0-2.06,0-3.23,0l-1.92-.06-.46,0-.09,0a.28.28,0,0,1-.15-.13.4.4,0,0,1,0-.24l0-.8,0-1.58,0-1.59v-.4a1.49,1.49,0,0,1,0-.24.11.11,0,0,1,0-.08.19.19,0,0,1,.12-.07h.73l1.95,0h4.75v-1h0v-.63l0-1.73-.06-2.52,0-1.07v-.53a.77.77,0,0,1,0-.19.3.3,0,0,1,.15-.17s.06,0,.31,0h4.41a.32.32,0,0,1,.25.15.26.26,0,0,1,0,.11v.69l0,1.44,0,2.87v2.55h1.19l5.15,0,.4,0,.73,0a0,0,0,0,1,0,0,.11.11,0,0,1,0,0v.45L29,38.87l0,1.28v.09C29.08,40.63,29.07,40.66,29,40.7Z"/></g></svg>